<?xml version="1.0" encoding="utf-8"?>
<!-- Generator: Adobe Illustrator 23.0.1, SVG Export Plug-In . SVG Version: 6.00 Build 0)  -->
<svg version="1.2" baseProfile="tiny" id="Layer_1" xmlns="http://www.w3.org/2000/svg" xmlns:xlink="http://www.w3.org/1999/xlink"
	 x="0px" y="0px" viewBox="0 0 400 400" xml:space="preserve">
<title>Logo with circle</title>
<g id="Circle">
	<g id="Circle-2">
		<circle fill="#FFFFFF" stroke="#959595" stroke-width="6" cx="200" cy="200" r="200"/>
	</g>
</g>
<g id="Phone_Icon">
	<g id="Body">
		<g id="Outline">
			<path fill="#DBDBDB" d="M150,42.4h110c13,0,23.5,10.5,23.5,23.5v267.7c0,13-10.5,23.5-23.5,23.5H150c-13,0-23.6-10.5-23.6-23.5
				V66C126.4,53,137,42.4,150,42.4z"/>
		</g>
	</g>
	<g id="Detailing">
		<g id="Home_Outline">
			<path fill="#B4B4B4" d="M205.1,325.7c6.4,0,11.6,5.2,11.7,11.6c0,6.4-5.2,11.6-11.6,11.7s-11.6-5.2-11.7-11.6c0,0,0,0,0,0
				C193.5,330.9,198.7,325.7,205.1,325.7 M205.1,324.9c-6.9,0-12.4,5.6-12.4,12.4c0,6.9,5.6,12.4,12.4,12.4
				c6.9,0,12.4-5.6,12.4-12.4l0,0C217.6,330.5,212,324.9,205.1,324.9L205.1,324.9z"/>
		</g>
		<g id="Home_Square">
			<path fill="#B4B4B4" d="M207.8,332.5c1.2,0,2.2,1,2.2,2.2v5.3c0,1.2-1,2.2-2.2,2.2h-5.3c-1.2,0-2.2-1-2.2-2.2v-5.3
				c0-1.2,1-2.2,2.2-2.2H207.8 M207.8,331.7h-5.3c-1.7,0-3,1.3-3,3v5.3c0,1.7,1.3,3,3,3h5.3c1.7,0,3-1.3,3-3v-5.3
				C210.8,333.1,209.4,331.7,207.8,331.7z"/>
		</g>
		<g id="Head_Speaker">
			<path fill="#707070" d="M216,69.9h-22.2c-1.7,0-3,1.3-3,3s1.3,3,3,3H216c1.7,0,3-1.3,3-3S217.7,69.9,216,69.9L216,69.9L216,69.9z
				"/>
		</g>
		<g id="Camera">
			<path fill="#464646" d="M205,57.3c-1.6,0-2.8,1.3-2.8,2.8s1.3,2.8,2.8,2.8c1.6,0,2.8-1.3,2.8-2.8S206.5,57.3,205,57.3L205,57.3z"
				/>
		</g>
	</g>
</g>
<g id="Key_Icon">
	<g id="Keyhole">
		<g id="Outer_Keyhole_Shadow_Keyhole_Rectangle_1">
			<image width="29" height="48" xlink:href="F95DFEC0.png"  transform="matrix(1 0 0 1 187 174)">
			</image>
		</g>
	</g>
	<g id="Key">
		<g id="Shaft_Lower_Shaft_Section">
			<image width="58" height="17" xlink:href="F95DFEC1.png"  transform="matrix(1 0 0 1 152 179)">
			</image>
		</g>
		<g id="Handle">
			<g id="Ellipse_2_Ellipse_3">
				<image width="48" height="67" xlink:href="F95DFEC7.png"  transform="matrix(1 0 0 1 106 154)">
				</image>
			</g>
			<g id="Ellipse_4_Ellipse_5">
				<image width="30" height="43" xlink:href="F95DFEC2.png"  transform="matrix(1 0 0 1 117 165)">
				</image>
			</g>
		</g>
	</g>
</g>
</svg>
