<svg xmlns="http://www.w3.org/2000/svg" viewBox="0 0 1400 1400"><defs><style>.a{fill:#fff;}</style></defs><title>cdbaby</title><rect width="1400" height="1400"/><path class="a" d="M778.4,399.9l-3.4-1.8L279.9,127.5l-6.6-3.7a58.8,58.8,0,0,0-25.9-6.1c-30.8,0-55.8,23.4-56.6,52.6,0,.5-.1.9-.1,1.5s.1.9.1,1.4V716c0,.4-.1,1-.1,1.4s.1,1,.1,1.5c.8,29.1,25.8,52.5,56.6,52.5a57.4,57.4,0,0,0,22.4-4.4l10.6-5.7,493.9-270,4.1-2.4c14.9-9.6,24.7-25.9,24.7-44.4s-9.8-34.7-24.7-44.6Z"/><path class="a" d="M997.2,971.1l-2.9-1.6L579.6,742.9l-5.5-3.1a49.2,49.2,0,0,0-21.7-5.2c-25.8,0-46.8,19.7-47.5,44.1,0,.4-.1.8-.1,1.3s.1.7.1,1.2v454.7c0,.4-.1.8-.1,1.2s.1.8.1,1.2c.7,24.4,21.7,44,47.5,44a48.3,48.3,0,0,0,18.7-3.6l8.9-4.9,413.8-226.2,3.4-1.9a44.4,44.4,0,0,0,20.6-37.3c0-15.4-8.2-29.1-20.6-37.3Z"/><path class="a" d="M1196,614.8l-1.7-1L928.1,468.3l-3.6-1.9a31.6,31.6,0,0,0-13.9-3.3c-16.5,0-30,12.6-30.4,28.2,0,.4-.1.6-.1.9s.1.5.1.7V784.7c0,.2-.1.5-.1.7s.1.6.1.8c.4,15.7,13.9,28.3,30.4,28.3a30.9,30.9,0,0,0,12-2.3l5.8-3.1,265.5-145.2,2.1-1.2a28.2,28.2,0,0,0,0-47.9Z"/></svg>