<svg xmlns="http://www.w3.org/2000/svg" viewBox="0 0 86.8 71.6"><defs><style>.a{fill:#1c204f;}</style></defs><title>disneyplus</title><path class="a" d="M49.6,65.7l-5,.4a56.1,56.1,0,0,0-10.2,2.1c-.8.3-2.5,1-2.7,1.9s.4,1.6,1,2.3l2.9,2.8a52.4,52.4,0,0,0,10.7,6.5l3.2,1.2V72c.2-2.9.1-6.3.1-6.3M103.5,68a20.4,20.4,0,0,1-.3,4.8,22.3,22.3,0,0,1-.9,3.2c-.5,1.2-1.1,2.3-1.6,3.3A32.8,32.8,0,0,1,96.1,85c-5.1,4.4-12.9,6.9-19.6,7.7a47.9,47.9,0,0,1-14.6-.4l-4.1-.9a14.9,14.9,0,0,1-.1,1.7,5.7,5.7,0,0,1-.4,1.4,2.5,2.5,0,0,1-1.8,1.3,5.1,5.1,0,0,1-3-.1c-1.5-.6-2.1-2.1-2.4-3.7s-.4-3.6-.4-3.6l-2.1-1a56,56,0,0,1-8.2-5l-4.2-3.5a25.4,25.4,0,0,1-4.7-5.6,5.3,5.3,0,0,1-.5-5c1-2.5,4.6-4.4,7.1-5.5a66.3,66.3,0,0,1,9.8-3l2.9-.5h.1a32.3,32.3,0,0,0,.1-3.5c0-.9.7-6.8.9-8A13.4,13.4,0,0,1,52,43.8c.3-.5.9-.4,1.4-.1,2.7,1.7,3.5,7.5,3.7,10.4s.2,4.5.2,4.5,3.1-.1,5,0a39.4,39.4,0,0,1,5.8.6c2.4.4,7.2,1.4,10,2.8s4.4,3.1,5,5.1a5.4,5.4,0,0,1-.4,4.8,6.6,6.6,0,0,1-5.2,3.4,10.3,10.3,0,0,1-3.7-.8.6.6,0,0,1-.1-.9l1.8-1,.8-.6c.5-.5,1-1,1-1.6s-.9-1.3-1.7-1.6c-3.7-1.5-11.2-2.7-14.8-2.9l-3.4-.2.4,19.9,3,.5,4.8.4c6.4.2,13.6-.4,19.5-3.2a19.5,19.5,0,0,0,6.8-4.8,13.8,13.8,0,0,0,3.3-10.3c-.4-4.2-3.4-9.3-5.7-12.4C83.2,47.7,72.4,41,62.9,37.1a84.9,84.9,0,0,0-29.6-6.7c-2.7-.1-8.5,0-11.4.8a5.3,5.3,0,0,1-1.2.3l-.9.4h-.1l.4.2,2.3.3a2.1,2.1,0,0,1,1.5.9c.2.4.3.8,0,1.1s-3.2.7-4.3.5-2.6-.5-2.8-1.5.3-2.3.9-3.4a8.1,8.1,0,0,1,5.5-3.9,52.8,52.8,0,0,1,11.5-1.8c7.7-.3,15,1.1,22.4,3.3A111.1,111.1,0,0,1,71,33.1a111.6,111.6,0,0,1,10.2,5.7l6.4,4.7c1.6,1.3,3.6,3.1,5.1,4.6s6.4,7.1,8.1,10.6c.4.8.7,1.6,1.3,2.6a18.2,18.2,0,0,1,1.1,2.8c.1.6.3,1.4.3,1.4s.1,1.8,0,2.5" transform="translate(-16.7 -24.4)"/></svg>