<svg xmlns="http://www.w3.org/2000/svg" viewBox="0 0 399.9 399.9"><defs><style>.a{fill:none;}.b{fill:#00aeef;}</style></defs><title>floatplane</title><circle class="a" cx="199.9" cy="199.9" r="199.9"/><path class="b" d="M280.9,311A136.4,136.4,0,0,1,88.7,118.7L76.2,102.8A156.3,156.3,0,0,0,296.9,323.4ZM150,77.2a137.2,137.2,0,0,1,42.9-6.9A136.6,136.6,0,0,1,329.3,206.8a136.5,136.5,0,0,1-6.8,42.8L337.9,265a154.7,154.7,0,0,0,11.3-58.2c.1-86.3-70-156.3-156.2-156.3a156,156,0,0,0-58.3,11.2Z" transform="translate(0 -0.1)"/><path class="b" d="M168.4,124.3,83.5,36.6,70.3,57.2a5.4,5.4,0,0,0,.4,6.2L144.3,158ZM140.8,240.2l-34.2-25.7-6.2,10.6a3.3,3.3,0,0,0,.4,3.7l28.8,31.3Zm61.4-81-7.9-8.2,2-8.2c.9-3.7,1.2-6.6.8-8.4a33.2,33.2,0,0,0-3.7-9.4L119,204.9s5.1,4.9,12.3-.8c3.3-2.6,16.2-13,30-24.4l12.6,16.2Zm72.6,71.6,2.1-8.3c.6-2.8,1.1-5.1.9-6.8a32.7,32.7,0,0,0-3.1-9.3l-79.9,74.4s4.9,5,12.5,0c3.8-2.5,19.4-13.6,35.1-24.8l93.7,73a5.6,5.6,0,0,0,6.3.4L363,316.2ZM160,259.6c12-9.3,28.7-22.2,43.8-33.7l17,13.2,27.8-33.7-9.2-8.9,3-10.6c1.5-5.3,2.1-9.4,1.6-12a46.3,46.3,0,0,0-4.8-13.3L129.4,270.3s3.4,2.8,10.5,0l31,28.5a3.2,3.2,0,0,0,3.7.4l10.6-6.2Z" transform="translate(0 -0.1)"/></svg>