<svg xmlns="http://www.w3.org/2000/svg" xmlns:xlink="http://www.w3.org/1999/xlink" viewBox="0 0 32 32"><defs><style>.a{fill:none;}.b,.c,.d,.e,.f,.g,.h{fill-rule:evenodd;}.b{fill:url(#a);}.c{fill:url(#b);}.d{fill:url(#c);}.e{fill:url(#d);}.f{opacity:0.2;}.f,.g,.h{isolation:isolate;}.g{opacity:0.12;}.h{fill:#fff;opacity:0.25;}</style><linearGradient id="a" x1="2818.21" y1="-1476.5" x2="2816.78" y2="-1475.76" gradientTransform="translate(-32787.6 33299.9) scale(11.64 22.55)" gradientUnits="userSpaceOnUse"><stop offset="0" stop-color="#00a0ff"/><stop offset="0.01" stop-color="#00a1ff"/><stop offset="0.26" stop-color="#00beff"/><stop offset="0.51" stop-color="#00d2ff"/><stop offset="0.76" stop-color="#00dfff"/><stop offset="1" stop-color="#00e3ff"/></linearGradient><linearGradient id="b" x1="2746.12" y1="-1511.42" x2="2743.51" y2="-1511.42" gradientTransform="translate(-25085.1 11653.9) scale(9.15 7.7)" gradientUnits="userSpaceOnUse"><stop offset="0" stop-color="#ffe000"/><stop offset="0.41" stop-color="#ffbd00"/><stop offset="0.78" stop-color="orange"/><stop offset="1" stop-color="#ff9c00"/></linearGradient><linearGradient id="c" x1="2877.85" y1="-1493.67" x2="2876.35" y2="-1491.73" gradientTransform="translate(-43206 17311.9) scale(15.02 11.58)" gradientUnits="userSpaceOnUse"><stop offset="0" stop-color="#ff3a44"/><stop offset="1" stop-color="#c31162"/></linearGradient><linearGradient id="d" x1="2876.69" y1="-1494.53" x2="2877.36" y2="-1493.66" gradientTransform="translate(-43206 17291.1) scale(15.02 11.57)" gradientUnits="userSpaceOnUse"><stop offset="0" stop-color="#32a071"/><stop offset="0.07" stop-color="#2da771"/><stop offset="0.48" stop-color="#15cf74"/><stop offset="0.8" stop-color="#06e775"/><stop offset="1" stop-color="#00f076"/></linearGradient></defs><title>googleplay</title><rect class="a" width="32" height="32"/><path class="b" d="M5.1,3.7a2,2,0,0,0-.5,1.4V26.9a2,2,0,0,0,.5,1.4h0L17.4,16.1v-.2L5.1,3.6Z"/><path class="c" d="M21.4,20.2l-4-4.1v-.2l4-4.1h.1l4.9,2.8c1.3.8,1.3,2,0,2.8l-4.9,2.8Z"/><path class="d" d="M21.5,20.2,17.4,16,5.1,28.3c.4.5,1.2.5,2,.1l14.4-8.2"/><path class="e" d="M21.5,11.8,7.1,3.6c-.8-.4-1.6-.4-2,.1L17.4,16l4.1-4.2Z"/><path class="f" d="M21.4,20.1,7.1,28.2a1.6,1.6,0,0,1-2,0h0a1.8,1.8,0,0,0,2,0l14.4-8.2Z"/><path class="g" d="M26.4,17.3l-5,2.8h.1l4.8-2.8c.7-.4,1.1-.9,1.1-1.4a2,2,0,0,1-1,1.3Z"/><path class="h" d="M7.1,3.8,26.4,14.7a2,2,0,0,1,1,1.3,1.9,1.9,0,0,0-1-1.4L7.1,3.6c-1.4-.7-2.5-.1-2.5,1.5h0C4.6,3.7,5.7,3,7.1,3.8Z"/></svg>