<svg xmlns="http://www.w3.org/2000/svg" viewBox="0 0 362.5 362.4"><defs><style>.a{fill:#e5b922;}.b,.c{fill:#010101;}.c{fill-rule:evenodd;}</style></defs><title>imdb</title><path class="a" d="M337.9,0H24.5A26.1,26.1,0,0,0,0,24.1V338c.9,13.2,10.8,23.3,23.5,24.4H339a26,26,0,0,0,23.5-25.8V25.8A25.9,25.9,0,0,0,338.6,0Z"/><rect class="b" x="43.6" y="124.7" width="28.8" height="111.2"/><path class="c" d="M133.6,124.7l-6.6,52-4.1-28.3c-1.2-9.1-2.4-17-3.5-23.8H82.1V235.8h25.2V162.4l10.5,73.4h17.9l10.1-75.1v75.1H171V124.7Z"/><path class="c" d="M215.8,235.9a82.9,82.9,0,0,0,15.5-1.1,17.6,17.6,0,0,0,8.6-4,14.5,14.5,0,0,0,4.9-7.9c.9-3.4,1.5-10,1.5-20v-39c0-10.5-.4-17.6-1.1-21.2a19.2,19.2,0,0,0-4.7-9.7c-2.6-3-6.3-5-11.3-6.4s-12.9-1.9-26.7-1.9H181V235.9Zm.3-91.1a4.2,4.2,0,0,1,2.1,3.1c.4,1.4.5,4.7.5,9.7v43.1c0,7.4-.5,11.9-1.4,13.5s-3.5,2.6-7.6,2.6v-73C212.8,143.8,214.9,144.1,216.1,144.8Z"/><path class="c" d="M256,124.7V235.9h25.9l1.7-7.1a24.8,24.8,0,0,0,7.8,6.5,26.9,26.9,0,0,0,10.2,2,18.8,18.8,0,0,0,11.8-3.6,15.6,15.6,0,0,0,6.3-8.5,66.6,66.6,0,0,0,1.3-14.9V179.1a111.1,111.1,0,0,0-.5-13.1,14.6,14.6,0,0,0-9-11.3,26.6,26.6,0,0,0-9.9-1.7,29,29,0,0,0-10.3,1.9,25.2,25.2,0,0,0-7.7,6V124.6H256ZM293.4,209c0,5.3-.3,8.7-.8,10.1s-2.9,2.2-4.6,2.2a3.4,3.4,0,0,1-3.4-2c-.6-1.3-.9-4.5-.9-9.4V180.5c0-5,.3-8.2.8-9.4s1.6-1.8,3.3-1.8,4.1.6,4.7,2.2.9,4.5.9,9.1Z"/></svg>