<svg xmlns="http://www.w3.org/2000/svg" viewBox="0 0 32 32"><defs><style>.a{fill:#fff;}.b{fill:#e50914;fill-rule:evenodd;}</style></defs><title>netflix</title><rect class="a" width="32" height="32"/><path class="b" d="M23.9,19.2h1.2V12.1H23.9ZM4.2,16.5,2.6,12.1H1.5v7.8l1.2-.2V15.5l1.4,4.1H5.4V12.2H4.2Zm2.4,2.8L10,19V17.8H7.8V16.1H9.5V15H7.8V13.4H10V12.2H6.6Zm4.2-5.9h1.3V19h1.2V13.4h1.3V12.2H10.8Zm4.6,5.5h1.2V16.1h1.7V14.9H16.6V13.3h2.2V12.1H15.4Zm15.1-6.8H29.2l-.9,2.1-.8-2.1H26.2l1.4,3.7L26,19.4h1.3l.9-2.1.9,2.3,1.4.2h0l-1.6-4.1Zm-9.7,0H19.6V19l3.3.2V18H20.8Z"/></svg>