<svg xmlns="http://www.w3.org/2000/svg" viewBox="0 0 32 32"><defs><style>.a{fill:none;}.b{fill:#eb5055;}.c{fill:#208efc;}</style></defs><title>smashcast</title><circle class="a" cx="16" cy="16" r="16"/><path class="b" d="M8,13H7.4L3.1,11.1a1.7,1.7,0,0,1-.9-2.2A1.7,1.7,0,0,1,4.4,8L8.7,9.9A1.6,1.6,0,0,1,9.6,12,1.8,1.8,0,0,1,8,13Zm18.6,8H26l-4.1-1.8a1.7,1.7,0,0,1-.9-2.2,1.7,1.7,0,0,1,2.2-.9l4.1,1.9a1.6,1.6,0,0,1,.9,2.1,1.7,1.7,0,0,1-1.6,1ZM9.8,29H9.1a1.6,1.6,0,0,1-.8-2.2L10.7,21a1.7,1.7,0,1,1,3.1,1.3L11.3,28a1.9,1.9,0,0,1-1.5,1ZM18.4,8.9h-.6a1.7,1.7,0,0,1-.9-2.2L18,4a1.6,1.6,0,0,1,3,1.3L19.9,7.9a1.6,1.6,0,0,1-1.5,1Z" transform="translate(0 0)"/><path class="c" d="M20.5,30.7a1.7,1.7,0,0,1-1.5-1L16.7,24a1.8,1.8,0,0,1,.9-2.2,1.7,1.7,0,0,1,2.1.9L22,28.4a1.8,1.8,0,0,1-.9,2.2Zm2-16a1.8,1.8,0,0,1-1.5-1,1.8,1.8,0,0,1,.9-2.2l5.7-2.2a1.8,1.8,0,0,1,2.2.8,1.8,1.8,0,0,1-.9,2.2l-5.7,2.3ZM12.4,10.3a1.6,1.6,0,0,1-1.5-.9L8.6,3.6a1.8,1.8,0,0,1,.8-2.1,1.7,1.7,0,0,1,2.2.8l2.3,5.8a1.7,1.7,0,0,1-.9,2.1ZM4.2,22a1.8,1.8,0,0,1-1.6-1,1.7,1.7,0,0,1,.9-2.1l3.8-1.5a1.6,1.6,0,0,1,2.1.8,1.7,1.7,0,0,1-.8,2.2L4.8,21.9Z" transform="translate(0 0)"/></svg>