<svg xmlns="http://www.w3.org/2000/svg" viewBox="0 0 31.9 13.8"><defs><style>.a{fill:#f50;}</style></defs><title>soundcloud</title><path class="a" d="M.2,17.4,0,19.2.2,21a.1.1,0,0,0,.1.1A.1.1,0,0,0,.4,21l.3-1.8L.4,17.4H.2c.1-.1,0-.1,0,0" transform="translate(0 -9.2)"/><path class="a" d="M1.4,16.3l-.3,2.9.3,2.9h.2L2,19.2l-.4-2.9c0-.1-.1-.1-.2,0h0" transform="translate(0 -9.2)"/><path class="a" d="M5.1,16l-.2,3.2.2,3.4.2.2a.2.2,0,0,0,.2-.2l.4-3.4L5.6,16l-.2-.2c-.2,0-.3.1-.3.2" transform="translate(0 -9.2)"/><path class="a" d="M2.7,15.8l-.3,3.4.3,3.2a.2.2,0,0,0,.2.2.3.3,0,0,0,.1-.2l.3-3.2L3,15.8a.2.2,0,0,0-.2-.2c0,.1-.1.1-.1.2" transform="translate(0 -9.2)"/><path class="a" d="M3.8,15.7l-.3,3.5.3,3.3a.2.2,0,0,0,.4,0l.3-3.3-.3-3.5L4,15.5l-.2.2" transform="translate(0 -9.2)"/><path class="a" d="M6.4,13.9l-.3,5.3.3,3.4.2.2c.2,0,.3-.1.3-.2l.3-3.4-.3-5.3-.2-.2c-.2,0-.3.1-.3.2" transform="translate(0 -9.2)"/><path class="a" d="M7.7,12.7l-.2,6.5.2,3.4a.3.3,0,0,0,.3.3.3.3,0,0,0,.3-.3l.3-3.4-.3-6.5a.3.3,0,1,0-.6,0" transform="translate(0 -9.2)"/><path class="a" d="M12.9,12.4l-.2,6.8.2,3.2a.4.4,0,1,0,.8,0l.2-3.2-.2-6.9a.4.4,0,0,0-.4-.4c-.3.1-.4.2-.4.5" transform="translate(0 -9.2)"/><path class="a" d="M9,12.1l-.2,7.1L9,22.5a.3.3,0,0,0,.6,0l.2-3.3-.2-7.1a.3.3,0,0,0-.3-.3.3.3,0,0,0-.3.3" transform="translate(0 -9.2)"/><path class="a" d="M11.5,12.1l-.2,7.1.2,3.3a.4.4,0,0,0,.8,0l.2-3.3-.2-7.1a.4.4,0,0,0-.8,0" transform="translate(0 -9.2)"/><path class="a" d="M10.2,11.9,10,19.2l.2,3.3a.3.3,0,0,0,.6,0l.2-3.3-.2-7.3a.3.3,0,1,0-.6,0" transform="translate(0 -9.2)"/><path class="a" d="M14.2,11,14,19.2l.2,3.2a.4.4,0,1,0,.8,0l.2-3.2L15,11a.4.4,0,0,0-.8,0" transform="translate(0 -9.2)"/><path class="a" d="M15.6,10.3l-.2,8.9.2,3.2a.4.4,0,1,0,.8,0l.2-3.2-.2-8.9a.4.4,0,0,0-.4-.4h-.1c-.2,0-.3.2-.3.4" transform="translate(0 -9.2)"/><path class="a" d="M17.1,9.5c-.3.1-.4.2-.4.5V22.5a.7.7,0,0,0,.4.5H28a3.9,3.9,0,0,0,3.9-3.9A4,4,0,0,0,28,15.2a3.7,3.7,0,0,0-1.5.3,6.9,6.9,0,0,0-6.9-6.3h-.5a4.9,4.9,0,0,0-2,.3" transform="translate(0 -9.2)"/></svg>