<svg xmlns="http://www.w3.org/2000/svg" viewBox="0 0 167.5 167.5"><defs><style>.a{fill:#fff;}.b{fill:#1ed760;}</style></defs><title>spotify</title><rect class="a" x="26.3" y="43.9" width="119" height="79"/><path class="b" d="M85,1.3A83.8,83.8,0,1,0,168.8,85,83.7,83.7,0,0,0,85,1.3Zm38.4,120.8a5.2,5.2,0,0,1-7.1,1.7c-19.7-12-44.5-14.7-73.6-8.1a5.2,5.2,0,0,1-6.3-3.9,5.2,5.2,0,0,1,4-6.2c31.9-7.3,59.2-4.2,81.3,9.3A5.2,5.2,0,0,1,123.4,122.1Zm10.3-22.8a6.6,6.6,0,0,1-9,2.1c-22.5-13.8-56.8-17.8-83.4-9.7a6.6,6.6,0,0,1-8.2-4.4,6.5,6.5,0,0,1,4.4-8.1c30.4-9.3,68.2-4.8,94,11.1A6.5,6.5,0,0,1,133.7,99.3Zm.9-23.8c-27-16-71.6-17.5-97.3-9.7a7.8,7.8,0,0,1-9.8-5.2,8,8,0,0,1,5.2-9.8c29.6-8.9,78.8-7.2,109.9,11.3a7.8,7.8,0,0,1-8,13.4Z" transform="translate(-1.3 -1.3)"/></svg>