<svg xmlns="http://www.w3.org/2000/svg" viewBox="0 0 120 120"><defs><style>.a{fill:#1ab7ea;}.b{fill:#fff;}</style></defs><title>vimeo</title><rect class="a" width="120" height="120"/><path class="b" d="M103,39.9c-.4,8.4-6.3,20-17.7,34.7s-21.8,23-29.9,23c-5.1,0-9.3-4.7-12.8-14s-4.7-17.1-7-25.7-5.4-14-8.4-14c-.6,0-2.9,1.4-6.8,4.1l-4.1-5.3L29,31.4q8.6-7.3,12.9-7.8c6.7-.6,10.9,4,12.5,13.8s2.9,17.3,3.5,19.9c1.9,8.8,4.1,13.3,6.4,13.3s4.5-2.9,8.2-8.6,5.6-10.1,5.8-13.1c.5-4.9-1.4-7.4-5.8-7.4a16.8,16.8,0,0,0-6.4,1.4c4.3-14,12.4-20.7,24.4-20.3C99.3,22.8,103.5,28.6,103,39.9Z"/></svg>