<svg xmlns="http://www.w3.org/2000/svg" viewBox="0 0 300 300"><defs><style>.a{fill:none;}.b{fill:red;}.c{fill:#fff;}</style></defs><title>youtube</title><rect class="a" width="300" height="300"/><path class="b" d="M149.9,79.2s-63.2,0-79,4.1a26.3,26.3,0,0,0-17.9,18c-4.1,15.9-4.1,48.8-4.1,48.8s0,32.9,4.1,48.6a25.5,25.5,0,0,0,17.9,17.8c15.9,4.3,79,4.3,79,4.3s63.4,0,79.2-4.1a25.3,25.3,0,0,0,17.8-17.9c4.2-15.8,4.2-48.6,4.2-48.6s.2-33-4.2-48.9a24.9,24.9,0,0,0-17.8-17.7C213.3,79.2,149.9,79.2,149.9,79.2Z"/><polygon class="c" points="129.8 119.7 182.4 150.1 129.8 180.3 129.8 119.7"/></svg>